<svg xmlns="http://www.w3.org/2000/svg" viewBox="0 0 1020.44 594.35"><defs><style>.cls-1{fill:#fcd800;}</style></defs><g id="Layer_9" data-name="Layer 9"><path class="cls-1" d="M252.93,128.11c0-44.36-24.43-68.29-61.32-68.29-37.88,0-62.31,23.93-62.31,68.29V280.65H59.51V4.49H129.3V38.88C147.25,15.45,177.16.5,212.55.5c64.3,0,110.16,41.87,110.16,118.14v162H252.93Z"/><path class="cls-1" d="M511.64,285.14c-79.75,0-140.07-55.83-140.07-142.57C371.57,55.33,433.88,0,513.64,0S655.71,55.33,655.71,142.57C655.71,229.31,591.9,285.14,511.64,285.14Zm0-60.82c36.89,0,72.29-26.92,72.29-81.75,0-55.33-34.4-81.75-71.29-81.75s-70.29,26.42-70.29,81.75C442.35,197.4,474.26,224.32,511.64,224.32Z"/><path class="cls-1" d="M900.46,128.11c0-44.36-24.42-68.29-61.31-68.29-37.89,0-62.31,23.93-62.31,68.29V280.65H707.05V4.49h69.79V38.88C794.78,15.45,824.69.5,860.09.5c64.3,0,110.16,41.87,110.16,118.14v162H900.46Z"/><path class="cls-1" d="M682.56,432.81c-23,0-41.72,16.37-41.72,36.37A32.07,32.07,0,0,0,643,480.54a36.8,36.8,0,0,0,13.91,17,43.62,43.62,0,0,0,25.67,8,45.82,45.82,0,0,0,26.74-8.64,35.12,35.12,0,0,0,12.84-17.5,20.47,20.47,0,0,0,1.33-5.45V464.4C721.07,446.68,703.68,432.81,682.56,432.81Z"/><path class="cls-1" d="M912.89,334.85H110.22c-147,0-147,259.5,0,259.5H912.89C1056.3,594.35,1056.3,334.85,912.89,334.85Zm-97.43,32.06c7.22,0,13.1,5,13.1,10.91,0,6.13-5.88,11.13-13.1,11.13s-12.84-5-12.84-11.13C802.62,371.91,808.24,366.91,815.46,366.91ZM244.82,413.27V434.4H216.74v70.46h18.72v21.36H176.09V504.86h17.38V434.4H176.09V413.27h17.38v-28c1.34-15.68,17.12-29.31,37.44-29.31,20.06,0,35.83,13.41,35.83,30.68H243.21c0-5.46-6.15-10.68-12.3-10.68-7.75,0-12.3,3.86-14.17,9.31v28ZM431.73,434.4H415.15v70h16.58v22.27H389.22V514.86a65,65,0,0,1-37.71,11.81c-33.43,0-59.9-24.31-62-52V434.4H271.82V413.27h58.57V434.4H313.54v45.68c5.08,14.78,20,25.69,38,25.69,17.65,0,32.62-10.69,37.71-25.69V434.4H373.17V413.27h58.56Zm177,92.05H549.12V504.63h17.65V460.08c-5.08-15.22-20.59-26.36-38.77-26.36-16.58,0-31,9.55-36.91,22.73v48.18h16.05v21.82H448.31V504.63h16.31V435.54H448.31v-23h42.78V423.5A67.64,67.64,0,0,1,528,412.59c22.73,0,42.51,10.91,53.75,27.27a52.77,52.77,0,0,1,9.36,25.68v39.09h17.64Zm158-92.27H748.88v91.13c0,18.41-9.9,34.77-25.41,45a70.74,70.74,0,0,1-39.84,12c-22.73,0-42.52-10-54.29-25.22l14.44-21.37a.78.78,0,0,0-.26-.68h.8l-.54.68c5.08,15,21.13,25.91,39.85,25.91,19,0,35-11.36,39.84-26.59V513.49c0,.23-.27.23-.53.46-11,7.72-25.14,12.27-40.38,12.27a70.23,70.23,0,0,1-38.78-11.14,57.91,57.91,0,0,1-17.64-17,52.22,52.22,0,0,1-9.1-28.86c0-31.59,29.42-57.05,65.52-57.05a70.57,70.57,0,0,1,40.91,12.73V412.13h43.32Zm78.35,92.49H785.77V505.08h16.85V435.54H785.77V413h42.79v92h16.58Z"/></g></svg>